<?xml version="1.0" standalone="no"?>
<!DOCTYPE svg PUBLIC "-//W3C//DTD SVG 20010904//EN"
 "http://www.w3.org/TR/2001/REC-SVG-20010904/DTD/svg10.dtd">
<svg version="1.0" xmlns="http://www.w3.org/2000/svg"
 width="512.000000pt" height="512.000000pt" viewBox="0 0 512.000000 512.000000"
 preserveAspectRatio="xMidYMid meet">
<metadata>
Created by potrace 1.16, written by Peter Selinger 2001-2019
</metadata>
<g transform="translate(0.000000,512.000000) scale(0.100000,-0.100000)"
fill="#000000" stroke="none">
<path d="M2404 5047 c-12 -17 -27 -43 -34 -56 -7 -14 -23 -36 -36 -50 -13 -14
-24 -30 -24 -35 0 -10 -143 -249 -210 -351 -22 -33 -45 -71 -51 -85 -5 -14
-40 -72 -76 -130 -37 -58 -79 -126 -96 -152 -16 -27 -33 -48 -38 -48 -6 0 -33
17 -62 38 -29 21 -95 70 -147 109 -52 38 -130 93 -174 122 -43 29 -86 59 -95
67 -73 61 -297 214 -309 212 -9 -2 -28 -34 -45 -78 -16 -41 -40 -104 -54 -140
-14 -36 -38 -99 -53 -140 -15 -41 -37 -93 -49 -115 -12 -21 -21 -45 -21 -52 0
-8 -16 -55 -36 -106 -20 -50 -49 -126 -65 -167 -64 -173 -73 -195 -79 -200 -4
-3 -18 -39 -32 -80 -48 -138 -114 -314 -240 -635 -89 -226 -99 -253 -90 -258
4 -3 221 0 482 5 614 11 683 13 816 23 62 4 114 4 116 -1 7 -11 -4 -209 -31
-559 -11 -148 -23 -330 -27 -403 -6 -124 -8 -133 -28 -137 -23 -4 -597 -22
-1021 -30 -192 -4 -274 -10 -282 -18 -10 -10 -10 -23 2 -62 21 -74 109 -378
160 -555 25 -85 56 -193 70 -240 14 -47 25 -92 25 -100 0 -8 9 -39 20 -69 12
-29 27 -85 36 -124 8 -39 18 -75 23 -81 12 -16 51 -142 52 -168 0 -13 13 -54
28 -93 26 -64 31 -70 60 -73 36 -4 208 19 701 94 91 13 210 31 265 38 91 13
382 59 560 89 l70 12 3 389 2 388 23 -6 c12 -3 65 -13 117 -22 52 -9 98 -18
102 -20 4 -3 63 -13 130 -24 122 -18 282 -48 513 -97 133 -28 172 -35 290 -57
153 -27 261 -48 355 -67 119 -24 268 -44 275 -37 3 3 10 126 16 274 5 148 16
402 24 564 8 162 15 319 15 348 l0 52 -455 0 c-328 0 -455 3 -455 11 0 6 22
37 49 68 26 31 60 74 74 96 14 22 44 63 66 90 42 53 236 307 285 375 l30 40
523 0 523 0 0 720 c0 679 -1 720 -17 720 -10 0 -101 -16 -203 -35 -102 -19
-202 -35 -223 -35 -21 0 -93 -11 -160 -24 -67 -13 -158 -27 -202 -31 -44 -3
-105 -10 -135 -15 -113 -18 -260 -40 -435 -66 -99 -14 -202 -32 -229 -40 -26
-8 -70 -14 -98 -14 -48 0 -49 -1 -66 -42 -10 -24 -24 -63 -31 -88 -7 -25 -28
-85 -47 -135 -80 -215 -138 -361 -144 -368 -4 -5 -16 5 -26 22 -11 16 -43 58
-72 93 -29 35 -89 110 -133 168 -43 58 -111 147 -150 198 -39 51 -70 94 -68
96 22 16 112 66 119 66 6 0 10 4 10 8 0 5 21 21 48 36 26 15 79 47 117 71 39
24 95 58 125 76 30 17 62 37 70 44 8 7 42 28 75 46 33 18 90 52 127 76 36 24
69 43 72 43 3 0 38 22 78 49 40 26 89 56 108 66 19 10 46 26 60 35 55 37 166
107 180 113 41 18 235 143 235 151 0 5 -7 12 -15 16 -23 11 -251 84 -390 125
-69 21 -190 58 -270 82 -293 92 -467 145 -550 169 -47 14 -102 31 -123 39 -63
25 -99 20 -123 -18z m246 -271 c36 -13 101 -33 144 -45 44 -12 99 -31 122 -42
24 -10 52 -19 63 -19 11 0 57 -13 103 -29 46 -16 112 -37 148 -45 36 -9 68
-20 73 -25 4 -4 -40 -37 -98 -72 -200 -121 -270 -164 -340 -209 -84 -54 -70
-45 -247 -149 -79 -46 -145 -87 -148 -91 -6 -9 -119 -80 -126 -80 -3 0 -36
-19 -72 -43 -37 -23 -88 -54 -114 -67 -26 -14 -50 -31 -53 -38 -5 -15 24 -72
37 -72 4 0 19 -17 33 -37 14 -21 38 -54 53 -74 15 -20 47 -62 71 -95 25 -32
49 -61 53 -63 5 -1 20 -19 33 -40 31 -47 115 -157 186 -245 8 -10 39 -49 109
-141 17 -22 63 -82 103 -132 40 -51 86 -111 102 -133 82 -113 104 -122 123
-52 6 20 40 123 77 227 37 105 78 222 91 260 14 39 32 85 40 104 9 18 29 70
44 115 55 159 43 143 115 151 35 3 99 15 142 26 43 10 143 26 223 34 80 9 171
22 203 30 32 8 95 19 140 25 145 17 229 29 382 54 83 14 158 26 168 26 16 0
17 -29 17 -465 l0 -465 -464 0 -464 0 -36 -42 c-20 -23 -36 -47 -36 -53 0 -6
-9 -18 -20 -27 -10 -9 -31 -35 -46 -57 -15 -23 -30 -41 -34 -41 -3 0 -22 -24
-40 -52 -19 -29 -72 -100 -117 -158 -46 -58 -96 -122 -111 -143 -15 -21 -48
-63 -74 -94 -27 -31 -48 -60 -48 -65 0 -5 -24 -38 -52 -73 -29 -35 -73 -91
-98 -125 -25 -34 -52 -69 -60 -78 -35 -37 -81 -113 -75 -122 4 -6 207 -10 566
-10 l560 0 -6 -118 c-2 -64 -7 -224 -10 -355 -3 -130 -8 -244 -11 -251 -4 -10
-14 -12 -42 -5 -20 5 -57 11 -82 15 -25 3 -125 23 -223 45 -98 21 -188 39
-200 39 -12 0 -74 11 -137 24 -63 14 -182 36 -265 51 -275 49 -419 76 -485 91
-36 8 -101 21 -145 29 -45 8 -112 21 -149 30 -38 9 -73 12 -77 8 -5 -5 -10
-198 -11 -428 l-3 -420 -60 -12 c-33 -7 -134 -24 -225 -38 -91 -15 -235 -38
-320 -52 -85 -13 -193 -29 -240 -33 -47 -5 -134 -18 -194 -29 -60 -12 -128
-21 -150 -21 l-41 0 -19 68 c-10 37 -36 123 -57 192 -35 115 -54 180 -125 435
-14 50 -45 155 -70 234 -25 79 -41 148 -37 152 4 4 145 9 313 13 168 3 339 8
380 11 41 2 180 9 309 15 128 5 235 11 236 12 6 6 36 420 45 623 6 116 23 374
39 575 16 201 26 368 22 372 -3 3 -105 2 -226 -3 -810 -31 -1089 -39 -1097
-31 -6 6 -2 28 12 58 12 27 62 156 111 286 49 131 93 246 99 255 10 19 25 58
91 238 66 181 100 267 124 320 12 28 35 83 49 124 15 41 29 78 32 83 3 5 24
-6 47 -24 23 -18 47 -36 52 -40 6 -4 24 -19 41 -33 18 -14 34 -25 37 -25 3 0
44 -28 91 -62 167 -124 300 -220 377 -272 20 -14 49 -36 65 -51 15 -14 35 -24
43 -23 9 2 50 62 93 133 42 72 94 157 115 190 21 33 52 83 68 112 38 65 141
234 207 338 27 44 60 98 73 120 60 107 66 115 93 115 15 0 56 -11 92 -24z"/>
</g>
</svg>
